<?xml version="1.0" standalone="no"?>
<!DOCTYPE svg PUBLIC "-//W3C//DTD SVG 20010904//EN"
 "http://www.w3.org/TR/2001/REC-SVG-20010904/DTD/svg10.dtd">
<svg version="1.0" xmlns="http://www.w3.org/2000/svg"
 width="1024.000000pt" height="1024.000000pt" viewBox="0 0 1024.000000 1024.000000"
 preserveAspectRatio="xMidYMid meet">

<g transform="translate(0.000000,1024.000000) scale(0.100000,-0.100000)"
fill="#000000" stroke="none">
<path d="M0 5125 l0 -5115 5120 0 5120 0 0 5115 0 5115 -5120 0 -5120 0 0
-5115z m3972 3529 c267 -61 476 -270 592 -592 l26 -73 0 -567 c0 -312 -5
-1328 -11 -2258 -10 -1507 -9 -1700 4 -1766 31 -147 77 -236 166 -323 115
-112 235 -157 456 -174 77 -5 526 -12 997 -15 l856 -6 64 -23 c325 -123 528
-334 584 -608 51 -252 -60 -521 -288 -696 -74 -58 -206 -126 -318 -165 l-95
-33 -905 0 c-1462 1 -2056 38 -2448 151 -349 101 -572 292 -651 559 -49 168
-49 387 0 600 20 87 21 127 29 1230 5 627 13 1563 19 2080 6 517 11 1169 11
1449 0 555 -1 549 61 704 155 389 504 605 851 526z m3193 -1428 c179 -39 325
-100 467 -198 278 -190 463 -474 530 -812 28 -145 28 -339 0 -472 -93 -435
-467 -1182 -1024 -2046 -189 -293 -216 -331 -228 -323 -6 3 -75 104 -153 223
-623 942 -1024 1752 -1092 2202 -81 532 196 1070 675 1310 113 57 263 106 380
125 106 18 346 13 445 -9z"/>
<path d="M6830 6650 c-140 -17 -276 -86 -386 -196 -130 -129 -205 -330 -190
-503 10 -109 23 -154 71 -256 74 -155 221 -284 385 -336 93 -30 254 -37 354
-14 238 52 436 244 496 481 90 352 -128 721 -478 808 -77 19 -174 25 -252 16z"/>
</g>
</svg>
