<?xml version="1.0" standalone="no"?>
<!DOCTYPE svg PUBLIC "-//W3C//DTD SVG 20010904//EN"
 "http://www.w3.org/TR/2001/REC-SVG-20010904/DTD/svg10.dtd">
<svg version="1.0" xmlns="http://www.w3.org/2000/svg"
 width="1024.000000pt" height="1024.000000pt" viewBox="0 0 1024.000000 1024.000000"
 preserveAspectRatio="xMidYMid meet">
<metadata>
Created by potrace 1.16, written by Peter Selinger 2001-2019
</metadata>
<g transform="translate(0.000000,1024.000000) scale(0.100000,-0.100000)"
fill="#000000" stroke="none">
<path d="M0 5120 l0 -5120 5120 0 5120 0 0 5120 0 5120 -5120 0 -5120 0 0
-5120z m5270 3130 c194 -24 410 -107 577 -222 92 -63 219 -186 291 -283 108
-145 202 -369 233 -555 19 -111 17 -318 -5 -425 -35 -181 -136 -455 -274 -747
-184 -388 -542 -1004 -865 -1487 l-109 -164 -164 248 c-595 900 -976 1652
-1076 2119 -25 122 -30 350 -9 466 59 329 259 646 524 828 257 177 578 258
877 222z m-2298 -5151 c133 -28 236 -107 294 -224 31 -63 37 -86 41 -162 9
-143 -30 -247 -126 -336 -94 -88 -198 -123 -346 -115 -77 4 -104 11 -159 36
-88 41 -168 118 -209 201 -31 63 -32 71 -32 186 0 112 2 124 29 180 36 73 124
163 191 195 97 47 212 61 317 39z m990 0 c68 -15 155 -59 191 -97 l28 -29 -41
-36 -40 -37 -45 34 c-59 46 -105 60 -195 60 -66 1 -85 -4 -142 -32 -37 -18
-79 -47 -94 -65 -135 -160 -89 -404 94 -494 50 -24 69 -28 147 -28 96 0 149
18 205 70 l25 24 42 -39 42 -39 -46 -40 c-75 -67 -137 -86 -278 -86 -114 0
-123 2 -187 32 -170 80 -255 224 -246 414 4 76 9 97 41 162 89 179 290 270
499 226z m-2042 -359 l0 -360 220 0 220 0 0 -55 0 -55 -285 0 -285 0 0 415 0
415 65 0 65 0 0 -360z m2550 133 l1 -228 31 35 c17 19 116 122 220 228 l189
193 69 -3 69 -3 -174 -184 c-110 -115 -172 -188 -167 -196 4 -6 86 -107 182
-224 l175 -212 18 38 c10 21 93 205 185 408 l168 370 63 0 64 0 187 -412 188
-413 -67 0 -67 0 -43 100 -44 100 -220 -2 -219 -3 -42 -95 -42 -95 -135 -3
-135 -3 -154 181 -155 180 -72 -72 -73 -72 0 -108 0 -108 -65 0 -65 0 0 415 0
415 65 0 65 0 0 -227z m1710 -133 l0 -360 223 -2 222 -3 3 -52 3 -53 -290 0
-291 0 0 415 0 415 65 0 65 0 0 -360z m700 -55 l0 -415 -60 0 -60 0 0 415 0
415 60 0 60 0 0 -415z m850 371 c0 -43 -8 -54 -250 -355 -137 -171 -250 -313
-250 -316 0 -3 117 -5 260 -5 l260 0 0 -55 0 -55 -350 0 -350 0 0 43 c1 40 13
57 256 357 l254 315 -250 3 -250 2 0 55 0 55 335 0 335 0 0 -44z m760 -11 l0
-55 -235 0 -235 0 0 -125 0 -125 210 0 210 0 0 -50 0 -50 -210 0 -210 0 0
-130 0 -130 243 -2 242 -3 3 -52 3 -53 -305 0 -306 0 0 415 0 415 295 0 295 0
0 -55z"/>
<path d="M5000 7653 c-123 -20 -264 -99 -360 -199 -125 -132 -182 -274 -182
-453 1 -151 30 -250 111 -373 59 -91 137 -161 238 -215 106 -56 186 -76 308
-76 212 -1 391 85 524 251 96 119 141 249 141 408 0 187 -62 338 -195 470 -89
89 -194 150 -310 179 -55 14 -212 19 -275 8z"/>
<path d="M2781 2985 c-145 -41 -225 -147 -225 -300 -1 -96 23 -158 86 -222 62
-63 125 -88 228 -88 73 0 93 4 142 28 111 55 172 158 171 290 -1 204 -200 348
-402 292z"/>
<path d="M5413 2773 c-45 -103 -81 -188 -79 -190 2 -2 77 -2 168 -1 l165 3
-79 180 c-44 99 -83 183 -86 187 -4 4 -44 -77 -89 -179z"/>
</g>
</svg>
